<?xml version="1.0" encoding="UTF-8"?>
<!DOCTYPE svg PUBLIC "-//W3C//DTD SVG 1.1//EN" "http://www.w3.org/Graphics/SVG/1.1/DTD/svg11.dtd">
<!-- Creator: CorelDRAW -->
<svg xmlns="http://www.w3.org/2000/svg" xml:space="preserve" width="210mm" height="297mm" version="1.1" style="shape-rendering:geometricPrecision; text-rendering:geometricPrecision; image-rendering:optimizeQuality; fill-rule:evenodd; clip-rule:evenodd"
viewBox="0 0 21000 29700"
 xmlns:xlink="http://www.w3.org/1999/xlink"
 xmlns:xodm="http://www.corel.com/coreldraw/odm/2003">
 <defs>
  <style type="text/css">
   <![CDATA[
    .fil1 {fill:#FEFEFE}
    .fil0 {fill:#F6F6F6;fill-rule:nonzero}
   ]]>
  </style>
 </defs>
 <g id="Camada_x0020_1">
  <metadata id="CorelCorpID_0Corel-Layer"/>
  <g id="_1751892255136">
   <path class="fil0" d="M16697.9 11409.8l-341.21 466.92c198.97,253.12 317.61,572.35 317.61,919.28 0,286.98 -81.25,554.93 -221.92,782.26l333.45 356.18c150.4,-71.12 318.52,-110.96 495.94,-110.96 641.5,0 1161.53,520.03 1161.53,1161.53 0,641.5 -520.03,1161.53 -1161.53,1161.53 -641.51,0 -1161.53,-520.03 -1161.53,-1161.53 0,-227.29 65.36,-439.3 178.2,-618.37l-301.64 -322.2c-233.4,151.98 -512,240.38 -811.33,240.38 -776.81,0 -1414.56,-594.94 -1482.71,-1353.99l-972.77 0c-86.09,302.42 -233.83,578.84 -428.83,814.77l1896.32 1575.48c157.47,-79.81 335.58,-124.79 524.21,-124.79 641.5,0 1161.53,520.02 1161.53,1161.52 0,641.51 -520.03,1161.53 -1161.53,1161.53 -641.5,0 -1161.53,-520.02 -1161.53,-1161.53 0,-214.11 57.99,-414.6 159.05,-586.82l-1907.01 -1584.3c-356.71,237.72 -785.1,376.38 -1245.92,376.38 -375.77,0 -729.99,-92.19 -1041.32,-255.17l-886.55 1435.86c255.44,213.02 418.02,533.68 418.02,892.35 0,641.5 -520.03,1161.53 -1161.53,1161.53 -641.51,0 -1161.53,-520.03 -1161.53,-1161.53 0,-641.5 520.02,-1161.53 1161.53,-1161.53 46.82,0 92.98,2.88 138.36,8.25l962.51 -1558.95c-159.13,-155.2 -295.4,-333.84 -403.13,-530.28l-1766.38 919.72c2.62,31.89 4.06,64.14 4.06,96.69 0,641.5 -520.02,1161.53 -1161.53,1161.53 -641.5,0 -1161.52,-520.03 -1161.52,-1161.53 0,-641.5 520.02,-1161.53 1161.52,-1161.53 374.08,0 706.83,176.89 919.23,451.52l1776.29 -924.86c-31.07,-148.96 -47.48,-303.34 -47.48,-461.51 0,-29.85 0.62,-59.56 1.79,-89.15l-986.34 -390.43c-245.26,485.42 -748.49,818.26 -1329.56,818.26 -553.19,0 -1035.86,-301.68 -1292.51,-749.49l-428.14 20.59c16.54,78.02 25.31,158.96 25.31,241.91 0,641.5 -520.03,1161.52 -1161.53,1161.52 -641.5,0 -1161.53,-520.02 -1161.53,-1161.52 0,-641.51 520.03,-1161.53 1161.53,-1161.53 291.21,0 557.42,107.16 761.28,284.23l609.87 -29.37c-2.01,-31.46 -3.1,-63.18 -3.1,-95.16 0,-822.28 666.55,-1488.83 1488.82,-1488.83 822.28,0 1488.83,666.55 1488.83,1488.83 0,9.95 -0.18,19.85 -0.4,29.8l951.57 376.64c152.98,-436.86 436.95,-812.19 804.86,-1078.79l-567.45 -937.17c-118.25,40.54 -245.09,62.66 -377.08,62.66 -641.51,0 -1161.53,-520.03 -1161.53,-1161.53 0,-641.5 520.02,-1161.53 1161.53,-1161.53 641.5,0 1161.52,520.03 1161.52,1161.53 0,272.62 -93.98,523.3 -251.24,721.44l612.97 1012.35c215.07,-74.92 444.97,-118.21 684.17,-124.01l232.05 -2552.66c-454.75,-157.52 -781.26,-589.45 -781.26,-1097.78 0,-641.5 520.02,-1161.53 1161.53,-1161.53 641.5,0 1161.52,520.03 1161.52,1161.53 0,548 -379.43,1007.24 -889.95,1129.5l-236.27 2598.96c196.7,53.53 382.71,133.08 554.06,234.74l904.43 -745.3c-149.96,-232.4 -237.06,-509.16 -237.06,-806.31 0,-822.28 666.55,-1488.82 1488.83,-1488.82 822.27,0 1488.82,666.54 1488.82,1488.82 0,822.28 -666.55,1488.83 -1488.82,1488.83 -287.72,0 -556.33,-81.73 -784.06,-223.06l-856.44 705.78c357.23,391.35 578.15,909.28 587.4,1478.74l974.69 0c210.88,-565.97 756.08,-969.15 1395.53,-969.15 238.81,0 464.44,56.33 664.46,156.26l363.2 -497.04c-106.07,-175.23 -167.11,-380.79 -167.11,-600.57 0,-641.5 520.02,-1161.53 1161.53,-1161.53 641.5,0 1161.52,520.03 1161.52,1161.53 0,641.5 -520.02,1161.53 -1161.52,1161.53 -182.83,0 -355.79,-42.28 -509.65,-117.55z"/>
   <path class="fil1" d="M7894.9 16158.91c263.56,0 477.22,213.66 477.22,477.22 0,263.56 -213.66,477.21 -477.22,477.21 -263.56,0 -477.21,-213.65 -477.21,-477.21 0,-263.56 213.65,-477.22 477.21,-477.22z"/>
   <path class="fil1" d="M8303.03 7977.87c263.56,0 477.22,213.66 477.22,477.22 0,263.55 -213.66,477.21 -477.22,477.21 -263.56,0 -477.21,-213.66 -477.21,-477.21 0,-263.56 213.65,-477.22 477.21,-477.22z"/>
   <path class="fil1" d="M11122.81 5937.23c263.56,0 477.21,213.66 477.21,477.22 0,263.56 -213.65,477.21 -477.21,477.21 -263.56,0 -477.22,-213.65 -477.22,-477.21 0,-263.56 213.66,-477.22 477.22,-477.22z"/>
   <path class="fil1" d="M17207.54 9888.61c263.56,0 477.21,213.65 477.21,477.21 0,263.56 -213.65,477.22 -477.21,477.22 -263.56,0 -477.21,-213.66 -477.21,-477.22 0,-263.56 213.65,-477.21 477.21,-477.21z"/>
   <path class="fil1" d="M17281.77 14507.78c263.56,0 477.22,213.65 477.22,477.21 0,263.56 -213.66,477.21 -477.22,477.21 -263.56,0 -477.21,-213.65 -477.21,-477.21 0,-263.56 213.65,-477.21 477.21,-477.21z"/>
   <path class="fil1" d="M14721.66 15880.62c263.63,0 477.28,213.65 477.28,477.21 0,263.56 -213.65,477.22 -477.28,477.22 -263.56,0 -477.22,-213.66 -477.22,-477.22 0,-263.56 213.66,-477.21 477.22,-477.21z"/>
   <path class="fil1" d="M15185.46 11965.94c458.45,0 830.02,371.64 830.02,830.09 0,458.38 -371.57,830.02 -830.02,830.02 -458.38,0 -830.02,-371.64 -830.02,-830.02 0,-458.45 371.64,-830.09 830.02,-830.09z"/>
   <path class="fil1" d="M13868.36 7996.01c458.38,0 830.01,371.57 830.01,830.02 0,458.45 -371.63,830.02 -830.01,830.02 -458.45,0 -830.02,-371.57 -830.02,-830.02 0,-458.45 371.57,-830.02 830.02,-830.02z"/>
   <path class="fil1" d="M10566.29 10896.9c782.41,0 1416.7,634.3 1416.7,1416.7 0,782.48 -634.29,1416.7 -1416.7,1416.7 -782.48,0 -1416.7,-634.22 -1416.7,-1416.7 0,-782.4 634.22,-1416.7 1416.7,-1416.7z"/>
   <path class="fil1" d="M5668.83 13932.77c263.56,0 477.21,213.65 477.21,477.21 0,263.56 -213.65,477.22 -477.21,477.22 -263.63,0 -477.29,-213.66 -477.29,-477.22 0,-263.56 213.66,-477.21 477.29,-477.21z"/>
   <path class="fil1" d="M3145.83 11688.07c263.56,0 477.22,213.65 477.22,477.28 0,263.56 -213.66,477.21 -477.22,477.21 -263.56,0 -477.21,-213.65 -477.21,-477.21 0,-263.63 213.65,-477.28 477.21,-477.28z"/>
   <path class="fil1" d="M6002.72 10333.43c458.45,0 830.02,371.64 830.02,830.09 0,458.38 -371.57,830.02 -830.02,830.02 -458.44,0 -830.01,-371.64 -830.01,-830.02 0,-458.45 371.57,-830.09 830.01,-830.09z"/>
  </g>
 </g>
</svg>
