<svg xmlns="http://www.w3.org/2000/svg" xml:space="preserve" width="1920" height="5000" style="shape-rendering:geometricPrecision;text-rendering:geometricPrecision;image-rendering:optimizeQuality;fill-rule:evenodd;clip-rule:evenodd"><defs><style>.str0{stroke:#373435;stroke-width:25;stroke-miterlimit:22.9256}.fil2{fill:none}.fil1{fill:#fefefe}.fil0{fill:#ededed;fill-rule:nonzero}</style></defs><g id="Camada_x0020_1"><g id="_1751892255136"><path d="m262 1404-34-21a103 103 0 0 1-117 14l-24 25a81 81 0 0 1-65 120 81 81 0 1 1 33-152l21-23a104 104 0 0 1 67-165l-4-67c-22-5-42-14-59-26l-101 139a81 81 0 1 1-33-31l101-140a156 156 0 0 1-19-159l-104-55a81 81 0 1 1 16-43l113 60c10-12 21-22 35-31L16 731l-7 1a81 81 0 1 1 48-21l73 120a157 157 0 0 1 38-6l22-70a104 104 0 0 1-16-182l-4-30a81 81 0 1 1 43-29l4 42h7a104 104 0 1 1 12 207l-22 68c31 8 58 26 78 51l63-44a81 81 0 1 1 29 35l-68 48c6 14 10 30 12 47l178 4a81 81 0 1 1 1 46l-182-5c-2 14-7 27-13 40l56 59a104 104 0 1 1-30 35l-53-57c-26 27-61 45-100 48l4 68a104 104 0 0 1 66 139l36 23a81 81 0 0 1 127 62 81 81 0 1 1-156-26z" class="fil0"/><path d="M-108 814a33 33 0 1 1-66 4 33 33 0 0 1 66-4zM463 805a33 33 0 1 1-66 4 33 33 0 0 1 66-4zM618 991a33 33 0 1 1-67 5 33 33 0 0 1 67-5zM371 1433a33 33 0 1 1-67 4 33 33 0 0 1 67-4zM50 1459a33 33 0 1 1-67 4 33 33 0 0 1 67-4zM-57 1287a33 33 0 1 1-67 4 33 33 0 0 1 67-4zM217 1301a58 58 0 1 1-116 8 58 58 0 0 1 116-8zM487 1192a58 58 0 1 1-115 7 58 58 0 0 1 115-7zM270 975a99 99 0 1 1-197 13 99 99 0 0 1 197-13zM37 649a33 33 0 1 1-67 4 33 33 0 0 1 67-4zM181 463a33 33 0 1 1-66 4 33 33 0 0 1 66-4zM289 655a58 58 0 1 1-116 8 58 58 0 0 1 116-8z" class="fil1"/></g><g id="_1751892255136_22"><path d="m1756 1956 23 33a103 103 0 0 1 116 29l30-15a81 81 0 1 1 19 41l-28 14a104 104 0 0 1-122 129l-21 65c19 12 34 28 46 46l144-93a81 81 0 0 1 104-91 81 81 0 1 1-84 132l-145 93a156 156 0 0 1-40 155l77 89a81 81 0 0 1 121 92 81 81 0 1 1-151-57l-84-97c-14 7-28 13-44 16l25 136 6 2a81 81 0 1 1-52 1l-24-137a157 157 0 0 1-38-9l-47 58a104 104 0 0 1-50 176l-8 28 17 4a81 81 0 1 1-67 8l11-41-6-2a104 104 0 1 1 64-197l45-56c-26-19-45-46-55-76l-74 18a81 81 0 1 1-14-43l80-19c0-16 2-33 6-49l-164-69a81 81 0 1 1 15-42l168 70c8-12 17-23 27-32l-30-76a104 104 0 1 1 40-21l29 72c34-16 73-20 111-8l20-65a104 104 0 0 1-11-154l-25-35a81 81 0 1 1 40-23z" class="fil0"/><path d="M1887 2641a33 33 0 1 1 63 20 33 33 0 0 1-63-20zM1351 2442a33 33 0 1 1 64 20 33 33 0 0 1-64-20zM1275 2212a33 33 0 1 1 63 20 33 33 0 0 1-63-20zM1665 1891a33 33 0 1 1 64 20 33 33 0 0 1-64-20zM1974 1983a33 33 0 1 1 63 20 33 33 0 0 1-63-20zM2011 2181a33 33 0 1 1 64 20 33 33 0 0 1-64-20zM1761 2069a58 58 0 1 1 110 34 58 58 0 0 1-110-34zM1469 2073a58 58 0 1 1 111 35 58 58 0 0 1-111-35zM1593 2353a99 99 0 1 1 188 60 99 99 0 0 1-188-60zM1692 2742a33 33 0 1 1 63 20 33 33 0 0 1-63-20zM1490 2863a33 33 0 1 1 63 20 33 33 0 0 1-63-20zM1460 2645a58 58 0 1 1 110 35 58 58 0 0 1-110-35z" class="fil1"/></g><g id="_1751892255136_23"><path d="m163 3653 23 33a103 103 0 0 1 116 29l30-15a81 81 0 1 1 19 41l-28 14a104 104 0 0 1-122 129l-21 65c19 12 34 28 46 46l144-93a81 81 0 0 1 104-91 81 81 0 1 1-84 132l-145 93a156 156 0 0 1-40 155l77 89a81 81 0 0 1 121 92 81 81 0 1 1-151-57l-84-97c-14 7-28 13-44 16l25 136 6 2a81 81 0 1 1-52 1l-24-137a157 157 0 0 1-38-9l-47 58a104 104 0 0 1-50 176l-8 28 17 4a81 81 0 1 1-67 8l11-41-6-2a104 104 0 0 1 62-198l2 1 45-56c-26-19-45-46-55-76l-74 18a81 81 0 1 1-14-43l80-19c0-16 2-33 6-49l-164-68a81 81 0 1 1 15-43l168 70c8-12 17-23 27-32l-30-76a104 104 0 1 1 40-21l29 72c34-16 73-20 111-8l20-65a104 104 0 0 1-11-154l-25-35a81 81 0 1 1 40-23z" class="fil0"/><path d="M294 4338a33 33 0 1 1 63 20 33 33 0 0 1-63-20zM-242 4139a33 33 0 1 1 64 20 33 33 0 0 1-64-20zM-318 3909a33 33 0 1 1 63 20 33 33 0 0 1-63-20zM72 3588a33 33 0 1 1 64 20 33 33 0 0 1-64-20zM381 3680a33 33 0 1 1 63 20 33 33 0 0 1-63-20zM418 3878a33 33 0 1 1 64 20 33 33 0 0 1-64-20zM168 3766a58 58 0 1 1 110 34 58 58 0 0 1-110-34zM-124 3770a58 58 0 1 1 111 35 58 58 0 0 1-111-35zM0 4050a99 99 0 1 1 188 60 99 99 0 0 1-188-60zM99 4439a33 33 0 1 1 63 20 33 33 0 0 1-63-20zM-103 4560a33 33 0 1 1 63 20 33 33 0 0 1-63-20zM-133 4342a58 58 0 1 1 110 35 58 58 0 0 1-110-35z" class="fil1"/></g><g id="_1751892255136_24"><path d="m2158 1413-24 15a72 72 0 0 1-25 79l9 23a57 57 0 0 1 58 76 57 57 0 1 1-88-65l-8-20a73 73 0 0 1-86-90l-44-17c-9 12-20 22-33 29l59 105c9-1 17 0 26 3a57 57 0 1 1-56 9l-59-105a109 109 0 0 1-107-34l-65 50a57 57 0 1 1-23-22l71-55c-5-9-8-20-10-31l-96 12-2 4a57 57 0 1 1 1-36l98-12a110 110 0 0 1 7-26l-38-35a73 73 0 0 1-121-42l-20-6-3 11a57 57 0 1 1-3-47l28 9 2-4a73 73 0 1 1 135 53l37 33c14-17 34-29 55-35l-9-53a57 57 0 1 1 30-8l11 57 33 6 55-112a57 57 0 1 1 29 13l-55 114c8 6 15 13 21 20l54-18a72 72 0 0 1 97-83 73 73 0 1 1-84 112l-51 18c10 24 11 51 1 77l45 17a73 73 0 0 1 108-2l25-16c-2-10-1-20 3-30a57 57 0 1 1 12 59z" class="fil0"/><path d="M1674 1478a23 23 0 1 1-17 43 23 23 0 0 1 17-43zM1834 1111a23 23 0 1 1-17 44 23 23 0 0 1 17-44zM1998 1066a23 23 0 1 1-17 44 23 23 0 0 1 17-44zM2207 1352a23 23 0 1 1-16 44 23 23 0 0 1 16-44zM2131 1564a23 23 0 1 1-17 44 23 23 0 0 1 17-44zM1990 1583a23 23 0 1 1-16 43 23 23 0 0 1 16-43zM2079 1412a41 41 0 1 1-29 76 41 41 0 0 1 29-76zM2087 1208a41 41 0 1 1-28 76 41 41 0 0 1 28-76zM1887 1283a69 69 0 1 1-49 130 69 69 0 0 1 49-130zM1610 1337a23 23 0 1 1-16 44 23 23 0 0 1 16-44zM1534 1191a23 23 0 1 1-17 44 23 23 0 0 1 17-44zM1688 1179a41 41 0 1 1-29 76 41 41 0 0 1 29-76z" class="fil1"/></g><g id="_1751892255136_25"><path d="m799 2047-18 12a55 55 0 0 1-19 61l7 16 18 3a43 43 0 1 1-41 6l-6-15a55 55 0 0 1-65-69l-34-13c-7 9-16 17-26 23l45 80a43 43 0 0 1 45 58 43 43 0 1 1-67-49l-46-80a83 83 0 0 1-81-26l-49 38a43 43 0 1 1-18-17l54-41c-3-8-6-16-7-24l-74 9-1 3a43 43 0 1 1 1-28l74-9a83 83 0 0 1 6-19l-29-27a55 55 0 0 1-92-32l-16-5-2 9a43 43 0 1 1-2-36l21 7 1-3a55 55 0 1 1 104 39v1l28 25c11-13 26-22 42-27l-7-40-14-2a43 43 0 1 1 37-4l8 44c8 0 17 1 25 4l42-85a43 43 0 1 1 22 9l-42 88c6 4 11 9 16 15l41-14c-2-10-1-21 3-31a55 55 0 1 1 8 53l-40 13c8 19 9 40 1 59l34 13a55 55 0 0 1 83-1l19-12c-2-8-1-16 2-23a43 43 0 1 1 9 44z" class="fil0"/><path d="M430 2097a18 18 0 1 1-12 33 18 18 0 0 1 12-33zM552 1818a18 18 0 1 1-12 33 18 18 0 0 1 12-33zM677 1784a18 18 0 1 1-13 33 18 18 0 0 1 13-33zM837 2001a18 18 0 1 1-13 33 18 18 0 0 1 13-33zM778 2163a18 18 0 1 1-12 33 18 18 0 0 1 12-33zM671 2177a18 18 0 1 1-12 33 18 18 0 0 1 12-33zM739 2047a31 31 0 1 1-22 58 31 31 0 0 1 22-58zM745 1892a31 31 0 1 1-21 57 31 31 0 0 1 21-57zM592 1949a53 53 0 1 1-37 98 53 53 0 0 1 37-98zM382 1990a18 18 0 1 1-12 33 18 18 0 0 1 12-33zM324 1879a18 18 0 1 1-13 33 18 18 0 0 1 13-33zM441 1869a31 31 0 1 1-22 58 31 31 0 0 1 22-58z" class="fil1"/></g><g id="_1751892255136_26"><path d="m1367 219-18 12a55 55 0 0 1-19 61l7 16a43 43 0 1 1-22 9l-7-15c-10 2-21 1-31-3a55 55 0 0 1-34-66l-33-13c-7 9-16 17-26 23l45 79c7 0 13 1 20 3a43 43 0 1 1-42 7l-46-80a83 83 0 0 1-81-26l-50 38a43 43 0 0 1-53 62 43 43 0 1 1 36-79l54-42c-4-7-6-15-7-23l-74 8-1 4a43 43 0 1 1 1-28l74-9a84 84 0 0 1 5-20l-29-26a55 55 0 0 1-92-32l-15-5a43 43 0 1 1-5-27l22 7 1-3a55 55 0 1 1 104 39l-1 1 28 25c11-13 26-22 43-27l-8-40a43 43 0 1 1 24-6l8 44c8 0 17 1 25 4l42-85a43 43 0 1 1 22 9l-42 87 16 16 41-14c-2-10-2-21 2-31a55 55 0 1 1 8 53l-39 13c7 19 8 39 1 59l34 13a55 55 0 0 1 82-1l19-12c-1-8 0-16 3-24a43 43 0 1 1 8 45z" class="fil0"/><path d="M999 269a18 18 0 1 1-13 33 18 18 0 0 1 13-33zM1121-10a18 18 0 1 1-13 33 18 18 0 0 1 13-33zM1246-44a18 18 0 1 1-13 33 18 18 0 0 1 13-33zM1405 173a18 18 0 1 1-12 33 18 18 0 0 1 12-33zM1347 335a18 18 0 1 1-13 33 18 18 0 0 1 13-33zM1240 349a18 18 0 1 1-13 33 18 18 0 0 1 13-33zM1308 219a31 31 0 1 1-22 58 31 31 0 0 1 22-58zM1314 63a31 31 0 1 1-22 58 31 31 0 0 1 22-58zM1161 121a53 53 0 1 1-37 98 53 53 0 0 1 37-98zM951 162a18 18 0 1 1-13 33 18 18 0 0 1 13-33zM893 51a18 18 0 1 1-13 33 18 18 0 0 1 13-33zM1010 41a31 31 0 1 1-22 58 31 31 0 0 1 22-58z" class="fil1"/></g><g id="_1751892255136_27"><path d="m525 2982 12-18a55 55 0 0 1-6-63l-13-13a43 43 0 1 1 18-17l12 12c8-6 18-10 29-10 29-1 54 20 57 48l37-1c2-12 7-22 14-31l-72-56a43 43 0 0 1-64-36 43 43 0 1 1 81 19l73 56a83 83 0 0 1 85-8l31-54a43 43 0 1 1 22 8l-33 60c6 5 11 12 16 19l64-37v-3a43 43 0 1 1 10 26l-65 37a84 84 0 0 1 2 20l38 13a55 55 0 0 1 97-6l16-1a43 43 0 1 1 15 23l-23 2v3a55 55 0 1 1-110 4v-1l-36-13c-5 17-15 31-29 42l23 34a43 43 0 1 1-19 15l-25-37c-8 3-16 5-25 5l-5 95a43 43 0 1 1-24 0l5-97c-8-2-15-4-21-8l-33 29a55 55 0 1 1-18-16l31-28a83 83 0 0 1-24-54l-36 2a55 55 0 0 1-75 33l-13 19a43 43 0 1 1-19-16z" class="fil0"/><path d="M846 2793a18 18 0 1 1-2-35 18 18 0 0 1 2 35zM842 3098a18 18 0 1 1-2-36 18 18 0 0 1 2 36zM740 3177a18 18 0 1 1-1-35 18 18 0 0 1 1 35zM508 3039a18 18 0 1 1-1-36 18 18 0 0 1 1 36zM499 2867a18 18 0 1 1-1-35 18 18 0 0 1 1 35zM592 2813a18 18 0 1 1-1-36 18 18 0 0 1 1 36zM581 2959a31 31 0 1 1-3-62 31 31 0 0 1 3 62zM635 3105a31 31 0 1 1-2-62 31 31 0 0 1 2 62zM754 2992a53 53 0 1 1-4-105 53 53 0 0 1 4 105zM931 2873a18 18 0 1 1-1-36 18 18 0 0 1 1 36zM1028 2953a18 18 0 1 1-1-36 18 18 0 0 1 1 36zM924 3007a31 31 0 1 1-2-62 31 31 0 0 1 2 62z" class="fil1"/></g><path d="M-98 989c593 171 18 835 622 835 516 0 369 276 873 196 305-49 202-584 317-659 70-45 326-74 366-47M524-29c26 458 325 323 638 587 163 137 849 80 859 86M-280 3412c88-97 1010-117 1052 471 13 193 325 50 708 245 123 63 510 149 628 73" class="fil2 str0"/></g></svg>